<?xml version="1.0" standalone="no"?>
<!DOCTYPE svg PUBLIC "-//W3C//DTD SVG 20010904//EN"
 "http://www.w3.org/TR/2001/REC-SVG-20010904/DTD/svg10.dtd">
<svg version="1.0" xmlns="http://www.w3.org/2000/svg"
 width="1000.000000pt" height="667.000000pt" viewBox="0 0 1000.000000 667.000000"
 preserveAspectRatio="xMidYMid meet">
<metadata>
Created by potrace 1.16, written by Peter Selinger 2001-2019
</metadata>
<g transform="translate(0.000000,667.000000) scale(0.100000,-0.100000)"
fill="#000000" stroke="none">
<path d="M0 3335 l0 -3335 1091 0 1091 0 39 31 c21 17 38 34 36 38 -3 11 80
91 94 91 5 0 8 4 4 10 -3 5 6 17 20 26 28 18 34 40 9 30 -14 -5 -15 -4 -5 8
20 24 140 81 216 104 73 21 298 67 374 76 61 6 39 -12 -64 -54 -132 -53 -254
-122 -292 -164 -29 -32 -103 -169 -103 -190 0 -3 16 -6 36 -6 36 0 38 2 112
85 25 28 84 75 94 75 5 0 19 9 31 21 39 37 77 61 77 49 0 -7 9 -2 19 11 11 13
22 21 25 18 3 -3 -8 -52 -24 -109 -17 -56 -28 -105 -25 -108 13 -13 28 22 56
128 35 134 56 184 98 232 l31 36 -48 -5 c-139 -13 -400 -71 -502 -111 -35 -15
-48 -17 -36 -7 11 8 24 15 29 15 5 0 32 20 59 45 28 25 56 45 63 45 7 0 18 7
25 15 11 13 10 15 -6 9 -17 -5 -17 -4 1 7 11 8 27 14 35 14 8 0 30 8 47 17 18
9 47 20 65 23 50 11 90 39 76 53 -7 7 -18 12 -25 12 -19 0 -16 7 17 42 34 35
37 53 13 67 -14 8 -15 10 -3 11 13 0 13 1 0 10 -13 9 -11 14 13 35 15 14 27
34 27 49 0 13 5 26 12 28 7 3 12 17 13 33 0 16 6 30 14 33 8 3 11 0 7 -6 -3
-6 -2 -13 3 -17 6 -3 8 4 6 17 -3 12 2 29 9 37 8 9 15 18 15 21 0 17 14 39 22
34 5 -3 14 8 21 23 14 31 64 83 80 83 6 0 8 7 4 15 -3 9 0 15 8 15 8 0 16 7
20 15 3 8 9 15 13 14 30 -5 35 2 18 21 -17 19 -16 21 41 86 104 117 114 129
114 136 0 12 82 51 125 59 54 11 158 -6 223 -36 l53 -25 -26 32 c-15 18 -44
40 -64 48 -73 33 -184 61 -230 59 l-46 -3 3 51 c2 27 -4 74 -12 103 -22 73
-20 93 10 129 22 26 33 31 72 32 47 1 47 1 15 11 -33 11 -44 9 -80 -18 l-23
-16 3 73 c3 73 26 138 65 182 24 27 29 21 24 -36 -5 -66 15 -112 54 -121 14
-4 29 -5 32 -2 3 3 4 33 3 67 -2 74 6 102 25 95 10 -4 19 6 28 27 19 42 41
119 39 135 0 6 4 12 10 12 13 0 2 -179 -14 -230 -19 -63 -12 -155 16 -200 14
-22 25 -44 25 -49 0 -5 7 -15 17 -22 15 -13 16 -10 10 41 -4 30 -12 80 -17
110 -12 64 4 527 21 602 6 25 19 54 30 64 19 17 19 14 19 -131 0 -187 29 -395
81 -570 36 -125 104 -293 114 -283 3 2 -9 46 -25 97 -109 336 -131 448 -137
691 -4 141 -8 191 -20 208 -13 22 -13 26 6 46 12 12 18 26 14 29 -3 4 -1 7 5
7 7 0 12 -10 12 -22 0 -38 12 -48 35 -31 16 13 17 15 3 10 -32 -11 -19 20 17
43 19 12 35 25 35 28 0 4 11 21 24 37 l24 30 -10 -46 c-12 -50 -4 -103 14 -97
6 2 20 22 31 43 11 22 24 47 29 55 4 8 14 30 22 47 14 30 46 46 46 23 0 -5 -7
-10 -15 -10 -8 0 -15 -4 -15 -10 0 -5 5 -10 10 -10 6 0 18 -8 29 -19 16 -16
17 -25 9 -72 -16 -96 -18 -113 -22 -189 -3 -41 -2 -93 1 -115 l6 -39 18 49 c9
28 25 73 35 100 9 28 26 62 36 78 22 31 71 60 84 49 5 -4 2 1 -5 11 -12 15
-12 17 2 11 13 -4 15 0 13 23 -4 32 11 66 24 58 5 -3 9 -16 9 -28 0 -12 2 -33
6 -47 5 -19 4 -22 -4 -10 -9 13 -11 13 -11 -2 0 -10 6 -18 13 -18 7 0 20 -9
30 -20 18 -22 22 -35 8 -26 -5 4 -7 -3 -4 -14 3 -11 10 -20 17 -20 12 1 56 35
56 43 0 3 4 16 9 29 5 13 10 28 12 33 1 6 11 19 21 29 60 65 96 156 62 156 -8
0 -12 5 -9 10 9 14 58 13 73 -2 9 -9 12 -9 12 -1 0 7 -20 28 -45 48 -25 21
-42 42 -38 48 3 6 1 7 -5 3 -7 -4 -12 -2 -12 4 0 6 -4 9 -9 6 -5 -3 -14 1 -21
8 -9 12 -6 18 15 32 22 14 43 16 143 11 112 -5 193 -20 292 -54 70 -24 100
-26 101 -5 1 9 1 20 0 24 0 4 6 5 14 2 9 -4 18 1 21 11 6 15 17 16 87 10 45
-3 86 -9 92 -13 5 -4 12 -7 15 -8 40 -8 39 -16 -12 -87 -28 -39 -59 -90 -69
-112 -25 -57 -122 -185 -117 -155 4 25 -12 90 -22 90 -6 0 -10 6 -10 14 0 8
-15 27 -32 42 -18 15 -40 39 -49 53 -18 29 -126 108 -135 98 -3 -3 28 -40 68
-82 52 -53 79 -74 90 -70 13 5 15 2 11 -14 -3 -13 3 -28 21 -44 14 -13 26 -29
26 -34 0 -6 7 -23 15 -40 14 -28 13 -33 -21 -99 -20 -38 -44 -80 -54 -94 -19
-27 -77 -177 -104 -271 -17 -57 -59 -129 -76 -129 -6 0 -9 -3 -9 -7 4 -22 -5
-37 -49 -84 -29 -31 -58 -53 -73 -54 -13 -1 -30 -3 -38 -4 -11 -1 -10 -5 5
-16 16 -12 17 -14 2 -15 -27 0 -95 -41 -95 -57 0 -13 3 -12 14 3 9 12 16 15
23 8 7 -7 -6 -29 -39 -67 -27 -31 -52 -65 -56 -76 -34 -108 292 -717 444 -829
16 -12 32 -22 34 -22 3 0 12 16 22 36 11 23 20 32 24 25 5 -7 13 6 20 30 16
54 46 110 55 102 3 -3 6 -22 7 -42 0 -21 3 -30 7 -21 4 8 17 15 29 14 15 -1
25 7 34 28 9 21 16 27 30 23 11 -4 19 -2 19 5 0 6 -5 8 -11 5 -6 -4 -5 2 3 14
7 12 19 19 25 16 7 -2 13 2 13 9 0 12 17 24 40 31 33 8 54 21 85 51 21 19 40
33 42 30 6 -6 58 54 66 77 4 9 11 17 17 17 5 0 10 11 10 25 0 16 6 25 15 25 8
0 15 6 15 14 0 8 7 16 15 19 18 7 43 -28 74 -103 13 -30 32 -69 42 -86 11 -18
26 -49 33 -70 l15 -39 0 39 c1 22 -17 112 -38 200 -61 251 -64 223 36 291 79
54 126 106 189 211 10 17 16 12 54 -47 32 -51 46 -65 61 -62 15 4 17 9 7 26
-7 14 -8 22 0 25 5 1 8 12 5 23 -3 11 -2 19 3 18 22 -4 33 2 28 16 -4 8 -10
15 -16 15 -5 0 -7 -4 -4 -9 3 -5 -1 -12 -10 -15 -23 -9 -24 -8 -24 20 0 22 3
24 23 18 22 -7 22 -6 3 15 -11 11 -25 21 -32 21 -7 0 -15 6 -18 13 -3 6 -3 0
0 -15 5 -21 2 -28 -9 -28 -8 0 -18 -6 -21 -12 -3 -7 -4 -2 -3 12 1 14 15 41
30 61 15 20 27 49 27 65 0 33 20 84 33 84 10 0 37 -26 37 -34 0 -3 -12 -6 -27
-6 -20 0 -24 -3 -14 -9 11 -7 11 -9 0 -14 -12 -5 -12 -6 0 -6 40 -3 60 -76 29
-107 -11 -11 -16 -10 -27 9 -13 20 -13 21 3 8 29 -24 31 -1 2 27 -21 19 -27
22 -22 9 3 -11 2 -16 -4 -12 -26 16 -6 -36 23 -61 17 -15 33 -31 33 -35 3 -22
6 -22 15 -1 5 13 13 21 18 17 6 -3 6 6 1 25 -7 23 -5 30 5 30 7 0 16 -6 18
-12 4 -10 6 -10 6 -1 1 6 -9 19 -21 28 -13 10 -16 14 -8 11 8 -3 23 -9 33 -12
9 -4 18 -11 18 -18 4 -40 19 -67 33 -59 6 3 5 0 -2 -8 -11 -12 -14 -12 -22 1
-5 8 -10 11 -10 5 0 -18 17 -36 30 -33 8 2 15 -6 16 -17 2 -16 2 -17 -2 -2 -4
14 -9 15 -19 7 -16 -14 -9 -40 11 -40 8 0 14 -8 13 -17 0 -11 -3 -13 -6 -5 -2
6 -14 12 -26 12 -18 0 -20 -2 -7 -11 12 -9 10 -10 -8 -6 -17 4 -22 2 -18 -8 3
-8 0 -15 -5 -17 -6 -2 -4 -11 4 -22 13 -17 14 -17 30 -1 14 14 20 15 32 5 8
-7 15 -19 15 -26 0 -8 6 -14 14 -14 8 0 18 -9 21 -21 5 -16 10 -18 21 -8 8 6
14 8 14 3 0 -5 5 -2 10 6 8 12 10 11 10 -7 0 -13 5 -23 11 -23 5 0 7 6 3 13
-5 9 -4 9 5 1 8 -7 31 -10 57 -7 33 3 46 1 50 -11 3 -8 14 -13 26 -11 13 3 18
0 15 -9 -3 -7 1 -13 8 -13 8 0 11 7 7 15 -3 10 -1 13 6 9 6 -4 16 -23 22 -41
6 -19 18 -37 26 -40 8 -3 12 -10 9 -16 -11 -17 7 -11 21 8 12 14 15 15 23 2 5
-8 7 -18 4 -23 -3 -5 -8 -5 -12 1 -3 6 -6 -19 -6 -56 0 -37 4 -72 7 -78 8 -12
-20 -12 -41 0 -7 5 -18 3 -24 -4 -9 -10 -9 -11 0 -6 7 4 22 1 35 -5 13 -7 30
-15 38 -19 8 -4 16 -16 18 -28 4 -23 32 -20 32 4 0 12 4 12 20 4 22 -12 25 -7
10 19 -6 13 -17 17 -35 14 -14 -3 -25 -1 -25 6 0 5 6 8 14 5 8 -3 17 0 21 6 5
8 12 4 22 -10 10 -14 19 -18 25 -12 7 7 3 17 -11 31 -12 12 -18 28 -15 38 5
16 4 16 -10 -1 -9 -11 -17 -16 -18 -10 0 5 -2 14 -3 19 -4 28 -17 55 -25 50
-5 -3 -11 -1 -15 5 -3 5 1 10 10 10 9 0 14 4 10 9 -3 5 -1 12 5 16 6 4 10 -5
10 -22 0 -42 12 -55 45 -47 26 6 27 5 22 -17 -7 -34 6 -62 31 -64 11 -1 19 2
16 7 -5 8 9 12 39 9 16 -2 22 11 17 34 -1 6 -3 16 -4 23 -3 18 -26 40 -26 24
0 -7 5 -12 11 -12 5 0 7 -5 4 -10 -4 -6 -2 -17 5 -25 9 -11 7 -12 -9 -8 -12 3
-18 9 -15 14 3 5 -1 9 -8 9 -23 0 -39 16 -32 33 3 9 10 14 15 11 17 -10 9 13
-10 30 -18 17 -20 17 -30 -1 -6 -10 -10 -13 -10 -8 0 6 6 19 14 29 8 11 15 16
15 11 0 -5 6 0 14 10 19 26 7 44 -12 19 -13 -18 -14 -17 -9 11 4 17 4 25 1 18
-4 -10 -8 -10 -18 0 -11 10 -10 14 5 25 11 7 19 20 19 28 0 8 4 14 10 14 5 0
7 -8 3 -17 -5 -15 -4 -16 8 -5 8 7 14 26 14 41 0 23 -4 27 -20 24 -19 -4 -19
-4 -2 7 14 9 22 9 30 1 16 -16 42 -14 57 4 15 18 41 20 38 3 -2 -8 6 -12 20
-10 21 3 32 -13 13 -20 -4 -2 -12 -14 -16 -27 -6 -21 -5 -22 8 -10 8 8 15 16
14 19 -1 3 4 15 11 28 11 19 16 21 34 11 21 -11 21 -12 -5 -28 -28 -16 -37
-34 -13 -25 8 3 19 -3 26 -15 6 -12 7 -21 3 -22 -4 0 0 -3 9 -7 13 -5 15 -11
8 -22 -9 -13 -11 -13 -20 0 -8 13 -10 12 -10 -2 0 -10 5 -18 11 -18 6 0 8 -8
5 -17 -4 -12 0 -9 12 6 l19 23 -2 -22 c-1 -13 -9 -28 -18 -35 -16 -12 -16 -13
3 -18 18 -5 19 -8 8 -31 -7 -17 -17 -25 -26 -21 -10 4 -12 0 -8 -11 3 -8 6
-17 6 -20 0 -2 7 -1 15 2 11 5 13 2 9 -10 -3 -9 -2 -16 4 -16 5 0 12 -6 15
-13 3 -8 -1 -14 -9 -14 -7 0 -11 4 -8 9 3 4 -2 5 -10 2 -12 -5 -10 -12 10 -41
28 -41 23 -57 -17 -51 -15 3 -26 1 -23 -4 3 -5 -7 -6 -22 -4 -27 5 -44 -6 -44
-29 0 -5 4 -3 10 5 8 12 11 12 28 -3 10 -9 24 -17 30 -17 7 0 12 -5 12 -11 0
-5 -6 -7 -12 -3 -7 4 -5 -2 5 -13 24 -28 21 -38 -6 -20 -23 15 -60 7 -44 -10
5 -4 12 -1 17 7 8 12 10 10 10 -8 0 -13 4 -20 10 -17 6 4 10 -5 10 -19 0 -14
-4 -26 -10 -26 -5 0 -10 -7 -10 -16 0 -8 -4 -12 -10 -9 -5 3 -10 1 -10 -4 0
-6 5 -11 11 -11 6 0 9 -9 6 -20 -3 -11 -4 -20 -2 -20 9 0 44 73 39 81 -3 5 -1
8 5 7 5 -2 58 69 118 156 76 113 121 169 153 192 45 32 75 45 52 22 -7 -7 -12
-21 -12 -33 0 -11 -7 -31 -16 -43 -8 -12 -14 -28 -11 -35 2 -6 12 2 22 18 31
50 48 67 55 55 7 -11 92 124 144 228 14 28 28 52 31 52 2 0 13 -21 25 -47 l21
-47 -42 -101 c-52 -125 -141 -387 -128 -380 5 4 9 12 9 18 1 7 11 25 24 40
l22 28 35 -35 c19 -20 34 -39 34 -44 0 -5 7 -16 17 -25 9 -9 26 -32 38 -52 12
-19 26 -35 31 -35 5 0 9 -7 9 -15 0 -9 7 -18 15 -21 8 -4 13 -9 11 -13 -3 -4
13 -26 34 -50 22 -23 42 -52 45 -63 4 -11 9 -17 12 -14 7 6 33 -19 33 -32 0
-5 13 -22 30 -38 16 -16 30 -34 30 -41 0 -7 16 -27 35 -46 19 -19 35 -39 35
-44 0 -6 11 -18 25 -27 14 -9 25 -23 25 -31 0 -8 7 -15 15 -15 9 0 12 -6 9
-15 -4 -9 -1 -15 7 -15 7 0 24 -12 36 -26 18 -21 22 -37 21 -75 -1 -27 -5 -49
-8 -49 -3 0 -7 -15 -8 -33 -2 -17 -7 -34 -12 -35 -6 -2 -7 -8 -4 -13 3 -6 12
-5 22 3 15 12 16 11 2 -6 -15 -19 -21 -98 -6 -89 4 3 0 -6 -9 -21 -12 -18 -15
-36 -11 -60 5 -27 3 -37 -11 -45 -13 -7 41 -10 190 -11 177 0 207 2 207 15 0
19 20 19 48 0 16 -12 42 -15 104 -13 56 2 77 6 63 11 -11 5 -38 18 -59 29 -49
26 -86 31 -86 12 0 -17 -7 -17 -49 -3 -45 16 -65 6 -50 -23 20 -40 1 -14 -56
73 -45 68 -55 92 -55 126 0 24 5 43 11 43 5 0 8 4 5 9 -10 16 13 61 30 61 9 0
14 5 11 12 -41 94 -67 178 -65 202 3 29 4 28 34 -29 17 -33 34 -75 38 -94 3
-18 16 -49 28 -69 l21 -35 76 6 c42 3 99 14 127 25 73 27 195 124 261 207 131
163 222 460 165 536 -48 65 -193 335 -184 345 4 4 2 4 -4 1 -7 -4 -30 16 -54
48 -23 30 -47 52 -53 48 -5 -3 -7 -1 -4 4 9 15 -29 47 -45 38 -10 -6 -10 -5
-1 5 16 18 -12 60 -41 61 -11 0 -15 3 -9 6 23 9 14 26 -9 19 -44 -13 -76 -13
-71 1 3 7 0 13 -6 13 -6 0 -11 7 -11 15 0 8 -4 15 -10 15 -5 0 -7 7 -4 15 4 8
-1 17 -9 21 -9 3 -13 13 -10 24 4 15 9 17 23 10 13 -7 21 -7 25 0 3 5 -3 10
-14 10 -15 0 -19 5 -15 17 5 17 5 17 -9 1 -17 -21 -39 -24 -31 -4 7 19 -14 31
-30 17 -9 -7 -16 -7 -24 1 -17 17 -15 38 3 38 8 0 15 -4 15 -10 0 -5 4 -10 9
-10 12 0 8 33 -5 45 -7 6 -15 24 -19 40 -7 25 -9 26 -13 10 -2 -11 -9 -26 -15
-33 -6 -7 -6 -12 -1 -11 19 3 34 -1 34 -11 0 -5 -9 -10 -20 -10 -21 0 -37 40
-24 61 4 8 3 9 -4 5 -7 -4 -12 -3 -12 3 0 6 9 15 20 21 17 9 19 14 8 33 -6 12
-18 27 -27 34 -10 7 -11 12 -4 13 8 0 9 9 3 30 -5 17 -6 30 -2 30 4 0 0 5 -8
10 -8 5 -27 7 -41 5 -20 -4 -28 1 -37 21 -7 14 -12 31 -12 39 0 8 -4 16 -8 19
-5 3 -8 -9 -8 -27 1 -18 -3 -45 -7 -60 -5 -19 -4 -27 3 -22 19 12 24 -27 5
-41 -10 -8 -20 -22 -22 -32 -17 -110 -7 -182 27 -182 10 0 32 11 48 25 17 14
33 25 36 25 14 0 4 -26 -14 -38 -11 -7 -20 -17 -20 -24 0 -6 10 -2 23 10 27
26 37 28 37 7 0 -17 -56 -49 -70 -40 -6 4 -8 11 -5 16 4 5 -1 9 -9 9 -19 0
-21 -16 -3 -34 10 -11 20 -10 61 6 27 10 50 17 51 16 2 -2 6 -15 10 -31 5 -18
3 -27 -5 -27 -6 0 -9 4 -6 8 2 4 1 14 -4 22 -7 12 -11 12 -27 -1 -10 -9 -27
-19 -38 -23 -19 -8 -19 -8 4 -24 27 -18 65 -27 56 -13 -3 5 -1 12 5 16 17 11
44 -4 57 -30 6 -14 7 -23 2 -19 -5 3 -17 0 -26 -5 -16 -9 -15 -10 7 -11 30 -1
75 -30 47 -30 -15 0 -14 -3 3 -20 20 -20 40 -59 46 -89 1 -8 8 -17 15 -21 6
-4 9 -12 6 -16 -3 -5 1 -18 9 -28 12 -18 15 -18 38 -2 45 29 78 16 51 -20 -13
-18 -14 -18 -8 4 3 15 1 22 -8 22 -14 0 -69 -39 -59 -41 3 0 13 -2 23 -4 9 -2
17 2 17 8 0 5 3 7 6 4 4 -4 1 -13 -5 -21 -8 -10 -9 -16 -1 -21 24 -15 8 -27
-27 -22 -21 3 -30 3 -20 1 9 -3 14 -10 11 -16 -4 -7 4 -8 24 -4 27 6 31 4 41
-25 14 -41 14 -42 -4 -35 -8 3 -15 2 -15 -3 0 -5 -9 -11 -20 -14 -17 -4 -19
-1 -15 30 4 31 2 33 -17 27 -15 -4 -19 -3 -14 7 4 8 0 5 -10 -6 -13 -15 -15
-16 -11 -3 3 9 1 19 -6 22 -9 3 -8 7 3 15 8 5 11 13 7 17 -4 4 -16 -2 -27 -14
-21 -22 -40 -29 -40 -14 0 4 12 18 27 32 22 21 23 26 9 28 -9 2 -14 8 -11 13
4 5 2 9 -4 9 -18 0 -21 -18 -4 -24 15 -6 15 -8 1 -22 -18 -19 -75 -9 -59 10 7
8 4 12 -12 11 -12 0 -22 3 -22 7 0 14 -39 36 -53 30 -12 -4 -12 -7 1 -17 9 -7
13 -15 9 -19 -4 -4 -1 -6 7 -4 8 1 20 -8 28 -22 7 -14 13 -21 13 -17 0 5 18
-10 40 -32 23 -23 45 -41 50 -41 5 0 6 -7 3 -17 -4 -9 -2 -14 3 -11 5 3 14 0
21 -7 13 -14 4 -26 -29 -38 -10 -4 -18 -11 -18 -18 0 -6 7 -9 14 -6 10 4 13 1
9 -9 -5 -14 -3 -14 16 -3 23 15 28 29 9 29 -9 0 -9 3 0 12 9 9 15 10 20 2 4
-7 16 -13 26 -15 21 -4 28 0 -74 -48 -34 -17 -39 -21 -17 -18 15 2 27 0 27 -4
0 -5 -9 -9 -21 -9 -11 0 -17 -5 -14 -10 4 -6 10 -8 14 -5 5 2 7 -8 5 -24 -3
-25 0 -28 21 -25 19 2 25 -3 25 -16 0 -10 -4 -22 -10 -25 -5 -3 -10 -2 -10 4
0 6 -8 7 -17 4 -11 -4 -13 -8 -5 -11 8 -2 4 -11 -10 -24 -17 -14 -18 -18 -6
-14 31 9 9 -19 -25 -32 -27 -10 -34 -10 -43 3 -6 8 -17 15 -23 15 -7 0 -10 4
-6 9 3 6 -4 15 -16 21 -15 8 -19 18 -15 33 3 12 -1 25 -10 31 -18 14 -27 56
-11 56 7 1 1 7 -13 15 -14 8 -20 15 -15 15 6 0 -5 8 -22 16 -18 9 -33 23 -33
30 0 8 -7 14 -16 14 -12 0 -15 6 -10 26 6 22 4 25 -10 20 -10 -4 -20 -2 -24 4
-4 6 -16 12 -28 13 -16 1 -18 4 -10 14 8 10 6 13 -5 13 -11 0 -14 6 -11 15 5
11 2 13 -10 9 -9 -3 -16 -1 -16 5 0 7 10 16 23 21 16 6 17 9 5 9 -9 1 -20 -4
-23 -9 -3 -6 -11 -10 -17 -10 -6 0 -5 7 3 17 11 13 8 13 -16 -3 -27 -17 -29
-18 -22 -1 6 15 4 16 -13 7 -23 -12 -26 -26 -7 -33 7 -3 5 -6 -5 -6 -29 -2
-21 29 18 65 42 40 34 44 -18 9 -45 -30 -58 -32 -33 -5 10 11 13 20 7 20 -6 0
-14 -5 -17 -10 -10 -17 -25 -11 -18 8 11 31 33 49 62 50 17 0 39 10 51 22 26
26 18 41 -8 17 -25 -23 -86 -35 -80 -16 3 8 14 14 25 15 34 2 53 12 53 29 0
18 -1 18 -37 5 l-28 -10 25 21 25 20 -33 -4 c-18 -2 -35 0 -38 5 -3 5 -10 6
-15 3 -5 -4 -9 0 -9 8 0 22 40 67 60 67 9 0 23 7 30 15 7 8 18 15 25 15 7 0
15 7 19 15 4 13 2 13 -14 5 -10 -5 -22 -15 -25 -20 -3 -6 -13 -10 -21 -10 -8
0 -13 4 -10 9 10 15 -22 20 -34 5 -10 -11 -10 -14 0 -14 8 0 3 -10 -11 -23
l-24 -24 -28 31 c-20 22 -27 38 -25 57 3 19 0 25 -8 22 -8 -3 -16 6 -20 24
-12 55 -15 61 -32 68 -11 4 -22 -1 -32 -13 -60 -77 -57 -74 -88 -67 -35 7 -47
28 -26 45 20 17 18 29 -5 27 -11 0 -17 -5 -14 -10 3 -5 0 -7 -8 -5 -8 3 -13
13 -11 22 2 9 -4 24 -13 33 -13 13 -14 18 -3 24 7 5 8 9 2 9 -10 0 -74 55 -74
64 0 3 6 6 13 9 6 2 4 3 -7 1 -28 -4 -66 17 -66 38 0 10 -4 18 -8 18 -5 0 -14
12 -20 26 -7 14 -8 23 -2 19 5 -3 10 -1 10 4 0 6 -4 11 -9 11 -13 0 7 59 28
83 8 10 23 16 33 14 9 -3 25 1 35 8 12 9 25 10 41 4 31 -12 35 -11 26 3 -5 8
-2 9 9 5 33 -13 27 13 -13 50 -26 25 -40 47 -40 63 0 18 3 21 9 11 7 -11 10
-11 17 0 4 7 3 14 -4 17 -8 2 -9 9 -2 23 9 16 19 18 66 14 45 -3 55 -1 50 10
-4 11 5 13 42 10 26 -2 61 -6 77 -10 23 -5 26 -4 15 4 -10 7 -11 11 -3 11 7 0
10 7 7 15 -4 8 -10 13 -14 10 -11 -7 -23 30 -25 81 -1 23 -5 46 -9 52 -8 14
21 42 42 42 9 0 35 -5 57 -11 77 -20 98 -20 91 -3 -4 11 1 18 14 21 11 3 21 9
21 14 5 33 20 59 35 59 8 0 14 5 14 11 0 16 21 -1 29 -25 5 -12 4 -24 -1 -27
-7 -4 -6 -9 1 -13 6 -4 11 -2 11 3 0 6 6 11 14 11 20 0 14 -32 -9 -52 -11 -10
-15 -17 -8 -18 6 0 13 4 15 9 2 5 15 7 30 4 15 -3 25 -9 22 -14 -3 -5 0 -9 5
-9 19 0 12 22 -9 27 -11 3 -20 12 -20 20 0 9 6 13 14 10 11 -5 11 0 -2 24 -9
16 -25 32 -34 35 -10 3 -18 9 -18 14 0 5 -8 11 -17 14 -19 6 -28 66 -11 66 5
0 3 6 -4 14 -7 8 -16 12 -20 9 -4 -2 -5 2 -3 10 6 13 -31 55 -43 49 -4 -2 -8
2 -11 9 -2 8 1 9 10 3 17 -10 -59 81 -94 115 -15 13 -33 21 -41 18 -8 -3 -16
2 -19 14 -3 12 -1 17 5 12 7 -3 8 -1 4 6 -28 45 -127 50 -185 8 -143 -103
-150 -107 -156 -88 -12 40 16 65 44 39 14 -13 14 -10 -6 39 -5 12 -3 14 8 8 7
-5 3 4 -9 20 -13 17 -34 48 -49 70 -14 22 -38 54 -53 70 -14 17 -44 53 -66 80
-30 40 -32 45 -10 25 l28 -25 -32 52 c-23 38 -32 64 -32 94 1 22 3 44 6 47 8
8 210 -213 306 -335 23 -29 33 -33 105 -43 58 -7 103 -22 164 -51 46 -22 147
-65 223 -95 77 -30 193 -81 258 -114 65 -33 185 -87 267 -120 252 -103 272
-115 323 -182 25 -33 63 -93 86 -132 22 -39 73 -127 113 -196 40 -69 95 -172
123 -230 28 -58 70 -132 93 -165 56 -79 75 -127 81 -205 8 -97 11 -106 43
-119 38 -16 76 -58 90 -100 6 -19 11 -79 11 -135 0 -78 6 -118 24 -176 13 -41
36 -154 51 -250 15 -96 34 -188 42 -205 9 -16 46 -66 84 -111 87 -102 139
-189 206 -339 l53 -120 0 3308 0 3307 -5000 0 -5000 0 0 -3335z m6549 2338
c12 -14 24 -23 28 -20 3 4 0 13 -7 22 -19 23 -3 18 20 -7 11 -12 20 -17 20
-10 0 6 7 9 16 5 13 -5 13 -7 2 -14 -9 -6 -5 -8 12 -7 22 3 25 -2 28 -29 3
-31 21 -47 23 -20 1 6 5 1 9 -13 8 -25 8 -25 10 5 l1 30 12 -25 c6 -14 16 -28
22 -32 6 -5 5 -8 -2 -8 -7 0 -13 -5 -13 -11 0 -5 5 -7 10 -4 6 3 10 -4 10 -16
0 -18 2 -19 15 -9 12 10 15 9 15 -5 0 -14 3 -15 15 -5 13 11 14 10 9 -5 -5
-11 -3 -16 2 -12 5 3 10 -2 10 -12 0 -10 -6 -18 -14 -18 -7 0 -10 7 -8 14 3 8
1 11 -4 8 -10 -6 -2 -65 11 -79 13 -14 11 -28 -2 -20 -7 4 -7 -1 1 -16 7 -12
8 -20 3 -17 -6 4 -16 -5 -24 -19 -10 -20 -11 -29 -1 -44 16 -27 15 -32 -5 -22
-24 12 -43 4 -43 -16 0 -13 2 -14 9 -4 8 13 46 12 83 -3 19 -7 34 -37 15 -29
-7 2 -13 -7 -14 -26 -2 -21 1 -28 9 -24 7 4 8 3 4 -4 -13 -21 -15 -50 -3 -48
7 0 13 -3 13 -9 1 -5 -2 -9 -7 -7 -5 1 -9 -2 -9 -8 0 -5 -7 -10 -15 -10 -23 0
-18 -18 6 -22 21 -3 21 -3 1 -28 -19 -25 -19 -49 2 -62 8 -6 7 -11 -3 -17 -15
-10 -5 -35 10 -26 14 9 11 -11 -3 -23 -7 -5 -29 -12 -48 -16 -19 -3 -50 -9
-67 -12 -20 -3 -33 -1 -33 5 0 6 -7 8 -15 5 -8 -4 -21 -2 -28 4 -14 10 -47 12
-47 2 0 -12 -35 -7 -49 7 -8 8 -22 12 -32 10 -11 -3 -19 -1 -19 4 0 5 6 9 13
9 7 0 4 7 -7 15 -11 8 -17 16 -13 16 4 1 11 2 16 3 5 0 12 4 15 9 3 4 3 5 -1
2 -3 -3 -12 3 -19 13 -11 15 -13 14 -25 -11 -7 -15 -16 -27 -21 -27 -5 0 -6 6
-1 13 12 19 14 49 3 42 -5 -3 -10 -14 -10 -23 -1 -15 -2 -15 -13 -2 -13 17
-31 20 -44 6 -4 -5 -3 -6 3 -3 7 4 17 0 24 -8 9 -11 9 -15 1 -15 -7 0 -10 -4
-6 -9 3 -5 1 -12 -5 -16 -5 -3 -10 2 -10 12 0 10 -9 29 -19 43 -12 15 -19 19
-19 10 2 -27 -26 -79 -45 -84 -10 -2 -16 -9 -13 -14 3 -5 -1 -15 -9 -22 -13
-11 -15 -7 -16 21 0 33 0 34 -11 9 -9 -21 -12 -22 -15 -7 -3 9 -9 14 -15 11
-7 -4 -8 -2 -4 4 8 14 -18 42 -56 61 -16 8 -28 18 -28 23 0 12 14 10 30 -4 8
-7 6 -3 -3 9 -12 14 -15 23 -8 28 6 3 9 18 6 33 -5 24 -4 25 4 5 6 -13 17 -20
28 -18 10 1 24 -2 31 -8 8 -6 12 -6 12 2 0 6 -4 11 -10 11 -5 0 -10 8 -10 17
0 13 3 14 12 5 7 -7 18 -12 26 -12 10 0 9 4 -3 17 -16 16 -16 17 4 25 24 9 26
18 9 39 -11 12 -11 12 2 1 7 -6 26 -12 40 -12 14 0 36 -9 48 -20 13 -13 23
-16 28 -9 3 6 15 9 25 6 10 -3 22 0 26 5 3 6 2 8 -4 5 -5 -3 -22 3 -39 14
l-29 21 26 -4 c22 -4 25 -2 21 19 -2 13 1 23 7 23 7 0 10 4 7 9 -4 5 0 11 6
14 9 3 7 9 -7 20 -20 16 -20 16 4 12 19 -4 22 -1 18 16 -4 16 -2 19 10 15 13
-6 14 -4 3 9 -7 9 -18 14 -25 11 -6 -2 -12 2 -12 10 0 9 7 13 21 9 12 -3 15
-2 9 1 -7 3 -13 15 -13 25 0 11 -4 17 -10 14 -5 -3 -10 -1 -10 4 0 6 5 11 11
11 5 0 7 5 3 12 -5 8 -2 9 10 5 10 -4 15 -3 11 3 -3 6 -13 10 -21 10 -11 0
-12 4 -4 19 8 16 6 22 -6 29 -13 7 -14 13 -5 29 5 11 7 23 4 27 -4 4 2 9 14
12 16 4 20 13 18 36 -1 17 -10 37 -20 44 -10 7 -15 20 -12 28 4 9 -1 19 -9 24
-14 8 -14 10 1 22 13 11 15 10 9 -6 -5 -19 -5 -19 10 0 10 12 23 17 41 14 14
-3 24 -3 21 -1 -5 6 16 32 26 33 4 0 16 -12 27 -27z m722 -30 c11 -13 17 -28
13 -34 -5 -8 -3 -9 6 -4 10 6 12 4 7 -8 -3 -10 -2 -17 3 -17 5 0 17 -14 25
-31 9 -17 19 -29 22 -26 2 3 14 -4 26 -16 12 -12 16 -22 9 -25 -6 -2 -8 -10
-5 -18 3 -9 9 -11 17 -5 7 6 16 4 24 -5 7 -8 9 -14 4 -14 -12 0 -2 -63 12 -73
7 -6 5 -7 -5 -4 -19 6 -40 -28 -35 -58 2 -11 -1 -23 -7 -26 -6 -4 -3 -16 7
-30 18 -26 22 -54 6 -44 -14 9 -12 -8 3 -24 10 -11 10 -13 0 -7 -8 5 -13 1
-14 -11 -1 -10 -2 -25 -3 -33 0 -8 -9 -14 -18 -12 -13 2 -18 -4 -17 -20 0 -13
3 -17 6 -10 2 6 12 12 20 12 10 0 13 -6 9 -16 -5 -14 -4 -15 8 -5 10 8 16 9
21 1 3 -5 0 -10 -7 -10 -7 0 5 -12 27 -26 22 -15 32 -24 23 -20 -14 4 -18 0
-18 -17 0 -18 2 -19 11 -7 7 11 8 4 4 -25 -4 -22 -8 -60 -11 -85 -4 -47 -10
-77 -21 -120 -4 -14 -7 -106 -8 -206 -2 -125 -6 -188 -15 -205 -7 -13 -14 -38
-16 -57 -1 -18 -12 -51 -23 -73 -12 -21 -20 -43 -19 -47 0 -4 -2 -14 -5 -22
-3 -8 -7 -23 -9 -33 -2 -10 -7 -17 -13 -15 -11 4 -15 38 -3 38 4 0 8 4 8 9 0
5 4 20 9 33 5 13 10 28 11 33 1 6 7 19 13 30 9 18 9 19 -6 6 -10 -7 -17 -19
-17 -26 0 -8 -12 -28 -26 -45 -20 -24 -29 -28 -35 -18 -7 10 -9 10 -9 -2 -1
-12 -3 -11 -11 3 -5 9 -7 23 -3 30 6 8 3 8 -8 -1 -9 -8 -14 -20 -11 -28 4 -10
0 -12 -11 -8 -9 3 -16 17 -16 30 0 13 -4 24 -10 24 -5 0 -10 9 -10 20 0 11 -2
20 -4 20 -2 0 -12 3 -22 7 -10 4 -15 2 -11 -4 7 -11 -21 -37 -46 -41 -10 -2
-25 2 -32 8 -11 9 -18 8 -30 -4 -11 -11 -12 -16 -4 -16 7 0 9 -3 5 -7 -4 -5
-14 1 -22 11 -13 18 -14 18 -14 2 0 -14 -8 -17 -42 -15 -24 1 -51 -2 -60 -6
-11 -4 -18 -3 -18 5 0 6 5 8 10 5 6 -3 10 -3 10 2 0 12 -42 29 -62 25 -22 -4
-31 -29 -12 -36 7 -3 13 0 11 6 -1 7 6 14 15 16 13 2 16 -1 12 -12 -4 -11 2
-19 17 -26 l24 -10 -24 3 c-13 1 -26 -4 -28 -10 -3 -7 0 -13 6 -13 6 0 11 -8
12 -17 0 -11 3 -13 6 -5 4 10 33 18 33 8 0 -2 7 -19 15 -39 14 -33 13 -35 -4
-30 -13 3 -23 -2 -30 -16 -7 -12 -19 -21 -27 -21 -8 0 -12 -4 -9 -10 20 -32
12 -56 -17 -51 -9 1 -2 -32 12 -58 7 -14 7 -21 0 -21 -5 0 -10 -5 -10 -11 0
-6 9 -9 19 -6 10 2 25 1 32 -4 12 -7 12 -9 1 -9 -8 0 3 -16 22 -35 24 -23 31
-35 21 -35 -11 0 -14 -6 -9 -24 3 -13 1 -27 -6 -31 -8 -5 -8 -10 1 -21 6 -8 7
-14 2 -14 -6 0 -10 -14 -11 -32 0 -17 -6 -34 -12 -38 -7 -4 -9 -16 -6 -27 4
-12 -1 -27 -14 -41 -24 -25 -35 -28 -27 -8 4 9 -2 17 -14 21 -10 4 -24 16 -30
27 -8 15 -8 19 0 14 10 -7 0 21 -33 93 -6 13 -19 26 -28 29 -10 2 -18 14 -18
25 0 16 -3 18 -12 9 -7 -7 -20 -12 -30 -12 -11 0 -15 -5 -12 -15 10 -26 -12
-17 -36 15 -26 33 -46 41 -30 11 17 -32 12 -34 -15 -5 -14 15 -25 23 -25 19 0
-4 -9 2 -20 15 -17 19 -20 20 -20 6 0 -27 -17 -10 -23 24 -5 21 3 54 23 107
17 43 30 85 30 95 0 9 4 19 10 23 5 3 7 12 3 21 -3 8 4 25 16 38 13 13 18 25
13 27 -6 3 -7 23 -2 55 9 55 7 88 -9 148 -5 22 -8 44 -5 48 10 16 43 8 49 -13
4 -12 12 -18 21 -15 8 3 14 2 14 -3 0 -15 38 -20 44 -6 3 9 -2 12 -15 10 -10
-2 -19 0 -19 6 0 8 17 13 47 12 6 0 9 5 6 13 -4 10 2 11 26 4 20 -5 33 -5 37
2 4 6 24 8 53 3 68 -10 109 -7 135 11 19 12 25 12 29 2 3 -10 8 -9 23 4 22 19
54 26 72 15 7 -5 12 -3 12 3 0 7 7 10 15 7 8 -4 17 -1 21 5 10 15 25 -27 18
-47 -4 -8 -1 -15 5 -15 6 0 11 7 11 15 0 9 7 18 16 22 8 3 13 12 10 20 -3 8 1
24 9 37 8 12 12 26 8 29 -3 4 0 7 7 7 10 0 11 14 6 63 -10 98 -10 102 -21 110
-6 4 -4 11 5 18 13 9 12 10 -2 5 -13 -4 -22 4 -34 25 -8 17 -11 28 -5 25 6 -4
11 -2 11 3 0 6 -9 16 -21 23 -27 17 -66 91 -50 96 6 2 8 9 4 15 -4 7 0 7 9 -1
14 -12 16 -10 10 10 -5 21 -4 22 11 9 20 -16 23 -1 5 18 -9 9 -9 12 -1 7 7 -4
13 2 15 16 2 13 8 21 13 18 6 -3 9 -9 7 -15 -2 -5 2 -5 9 2 10 10 9 16 -2 30
-13 16 -12 17 4 4 9 -7 17 -20 17 -28 0 -12 3 -13 14 -4 20 17 13 44 -15 58
-16 9 -19 13 -8 13 13 0 18 11 20 44 2 24 1 42 -2 40 -4 -2 -12 3 -19 11 -10
12 -10 18 0 30 11 13 8 19 -14 40 -26 24 -37 53 -14 39 7 -5 8 -3 2 7 -11 19
-15 35 -19 89 -2 25 -7 56 -11 69 -6 20 -4 23 10 18 14 -6 15 -4 5 15 -9 17
-13 18 -21 7 -7 -10 -7 -8 -3 9 4 13 2 22 -4 22 -6 0 -11 5 -11 10 0 6 6 10
13 10 6 0 20 14 29 30 21 38 9 40 -14 3 -10 -16 -18 -22 -18 -15 0 7 -3 11 -7
9 -13 -8 -8 62 5 75 9 9 12 9 12 -4 0 -9 -4 -18 -8 -20 -5 -1 -5 -14 -1 -28
l7 -25 7 23 c4 12 11 22 16 22 5 0 9 9 9 19 0 11 4 22 8 25 4 2 9 19 10 37 4
45 13 55 28 33 8 -10 23 -29 35 -41z m-890 -942 c4 -1 18 -12 31 -26 41 -40
53 -165 23 -230 -13 -29 -27 -64 -29 -75 -1 -3 -5 -11 -9 -17 -5 -9 -3 -13 8
-13 8 0 19 -10 24 -22 5 -15 10 -18 15 -9 4 6 2 19 -5 27 -10 12 -9 13 5 8 10
-4 16 -18 16 -40 0 -24 4 -32 14 -28 16 6 26 -6 32 -41 3 -17 -1 -27 -11 -32
-9 -3 -14 -11 -11 -19 3 -7 0 -14 -6 -16 -8 -3 -7 -16 3 -43 18 -56 21 -66 22
-99 2 -37 -22 -55 -55 -39 -13 6 -30 11 -38 11 -8 0 -26 1 -40 2 -14 1 -46 -1
-71 -4 -41 -4 -50 -1 -72 22 -25 28 -44 82 -28 82 23 0 45 77 47 170 4 145 13
179 58 211 4 4 3 10 -3 13 -16 10 -14 60 4 103 8 19 15 46 15 60 0 29 19 52
40 48 8 -2 18 -4 21 -4z m-201 -1128 c0 -5 39 -9 88 -11 48 -1 107 -4 132 -7
47 -4 56 -5 90 -5 38 0 50 -3 67 -22 16 -18 16 -18 0 -12 -10 4 -17 1 -17 -6
0 -10 -3 -10 -15 0 -13 11 -20 9 -39 -9 -15 -15 -26 -19 -31 -12 -4 7 -12 8
-24 1 -10 -5 -21 -6 -25 -3 -3 3 -6 1 -6 -6 0 -7 -3 -10 -7 -8 -5 3 -48 8 -96
11 -97 8 -117 13 -117 30 0 7 -3 6 -9 -2 -11 -19 -93 14 -89 36 5 27 26 24 36
-5 l10 -28 1 33 c1 27 5 32 26 32 14 0 25 -3 25 -7z m-520 -514 c0 -5 -5 -9
-11 -9 -8 0 -8 -4 0 -14 16 -19 -5 -32 -25 -15 -13 10 -13 8 -4 -15 9 -24 7
-28 -15 -36 -14 -5 -25 -13 -25 -18 0 -16 -39 -54 -49 -48 -12 8 -30 -24 -24
-41 9 -26 -16 -12 -46 25 -34 40 -34 38 23 56 11 4 16 12 12 21 -3 10 1 15 14
15 23 0 35 16 18 23 -8 4 -7 6 4 6 20 1 80 59 73 71 -3 5 8 4 25 -1 16 -6 30
-15 30 -20z m-203 -191 c15 -16 21 -28 15 -28 -7 0 -12 -7 -12 -17 0 -9 -3
-14 -6 -10 -3 3 -14 -2 -25 -11 -18 -16 -18 -18 -2 -29 9 -7 14 -13 10 -13 -4
0 0 -11 9 -25 13 -19 15 -39 11 -80 -3 -30 -2 -57 3 -60 4 -3 6 5 2 17 -3 15
-2 19 7 14 15 -9 41 11 35 27 -2 7 11 22 30 35 28 19 44 23 92 19 40 -3 61
-10 71 -23 17 -23 17 -30 -6 -97 l-20 -57 24 -6 c13 -3 33 -17 46 -30 13 -14
34 -24 50 -24 58 0 94 -89 64 -162 -14 -37 -15 -40 0 -28 13 11 19 9 41 -11
32 -30 64 -91 64 -121 0 -24 -33 -61 -44 -51 -3 4 -6 2 -6 -3 0 -13 -47 -65
-62 -68 -7 -2 -24 -8 -38 -14 -22 -9 -22 -11 -5 -11 17 -1 15 -6 -15 -31 -30
-25 -32 -30 -15 -31 11 0 14 -3 7 -6 -6 -2 -10 -8 -7 -13 3 -4 -11 -4 -30 0
-23 5 -36 4 -39 -4 -3 -7 -8 -7 -14 3 -12 17 5 61 24 61 15 0 29 19 19 28 -3
3 -11 0 -16 -8 -8 -11 -9 -10 -4 8 3 12 2 22 -2 22 -15 0 -33 -23 -33 -42 0
-9 -11 -29 -26 -43 -14 -14 -30 -38 -35 -54 -7 -20 -15 -28 -25 -24 -10 4 -17
-2 -21 -16 -3 -11 -9 -21 -14 -21 -5 0 -5 -8 -2 -17 5 -12 2 -15 -10 -10 -11
4 -17 1 -17 -8 0 -18 -21 -20 -38 -3 -7 7 -12 8 -12 2 0 -5 5 -15 12 -22 14
-14 3 -28 -27 -34 l-20 -5 20 -7 c11 -5 26 -10 32 -12 20 -5 3 -34 -21 -34
-15 0 -17 3 -8 9 11 6 10 10 -5 16 -22 9 -63 13 -58 5 2 -3 33 -21 70 -40 37
-19 62 -36 55 -38 -6 -2 -18 2 -27 10 -12 9 -15 9 -9 1 10 -17 2 -16 -37 2
-30 15 -31 15 -12 0 11 -9 19 -20 18 -25 -2 -5 4 -7 12 -4 8 4 15 1 15 -5 0
-19 -28 -12 -51 11 -12 13 -18 16 -13 8 6 -12 2 -11 -19 3 -31 20 -37 5 -10
-25 12 -14 13 -18 3 -18 -11 0 -11 -3 -2 -12 10 -10 15 -10 21 1 7 11 12 11
30 -1 20 -14 17 -15 -39 -14 -70 2 -68 -11 2 -16 27 -2 50 -9 53 -15 5 -16
-10 -17 -35 -3 -16 8 -18 7 -14 -4 9 -22 -15 -29 -41 -12 -30 20 -27 20 -54
-3 -16 -14 -18 -21 -9 -24 7 -3 -12 -6 -42 -7 -30 -1 -47 -4 -37 -7 20 -5 22
-14 5 -32 -11 -11 -10 -13 5 -8 11 4 16 3 12 -4 -4 -5 -15 -7 -25 -4 -13 4
-20 0 -25 -14 -3 -11 -19 -22 -36 -26 -17 -4 -28 -9 -25 -13 10 -9 -15 -32
-35 -32 -11 0 -19 -5 -19 -11 0 -6 -9 -1 -20 12 -10 13 -19 18 -20 12 0 -7 5
-13 10 -13 6 0 10 -9 10 -20 0 -11 -7 -20 -16 -20 -8 0 -12 -5 -8 -11 4 -7 0
-9 -14 -5 -12 4 -22 1 -25 -8 -4 -10 0 -12 14 -9 22 6 26 -15 4 -23 -8 -4 -15
-18 -15 -32 0 -14 -3 -22 -7 -19 -3 4 -14 0 -23 -8 -22 -20 -82 -24 -88 -6 -3
10 0 11 9 5 12 -6 12 -5 1 8 -10 13 -10 17 4 22 9 3 20 4 25 0 5 -3 4 7 -1 22
-8 20 -8 29 1 34 6 5 8 16 4 29 -7 24 13 29 33 9 9 -9 12 -9 12 1 0 7 6 11 14
8 11 -4 13 -1 9 10 -5 13 -2 15 12 10 15 -6 16 -5 5 8 -9 11 -9 15 -1 15 7 0
6 9 -5 25 -10 15 -12 25 -5 25 6 0 11 -4 11 -10 0 -5 10 -10 23 -9 20 0 21 1
2 8 -19 8 -19 8 0 19 11 6 14 12 7 12 -7 0 -10 5 -7 10 3 6 1 10 -5 10 -7 0
-9 -7 -5 -17 5 -14 1 -13 -14 4 -26 28 -26 33 -1 26 29 -8 24 2 -12 26 -18 11
-27 21 -20 21 7 0 10 5 6 11 -4 8 4 9 27 4 25 -4 30 -3 19 4 -8 6 -23 11 -32
11 -10 0 -18 5 -18 11 0 6 6 9 14 6 8 -3 16 2 19 14 3 11 14 19 27 19 25 0 17
-20 -8 -21 -14 0 -13 -2 3 -9 28 -12 37 -12 30 0 -10 17 17 11 30 -6 6 -9 20
-14 31 -12 17 5 17 6 -5 15 -33 13 -9 28 40 24 23 -1 42 4 52 14 15 15 18 15
38 -4 22 -20 63 -36 53 -20 -5 9 13 13 46 12 21 -1 -27 30 -52 34 -11 2 -17
-1 -14 -5 3 -5 -1 -9 -9 -9 -8 0 -12 4 -9 9 3 4 -3 8 -13 9 -13 0 -14 2 -4 6
11 4 8 10 -10 25 -22 18 -21 18 14 -1 43 -24 47 -25 47 -12 0 5 -8 12 -17 15
-10 3 -29 13 -43 21 l-25 15 32 0 c45 0 84 -17 90 -40 3 -11 10 -20 16 -20 6
0 7 3 4 7 -4 3 1 12 11 19 16 13 16 13 -2 14 -24 0 -56 28 -56 48 0 10 4 12
13 4 7 -5 21 -6 32 -1 11 4 14 8 8 10 -7 1 -19 2 -25 3 -7 1 -12 7 -10 14 1 9
-9 11 -35 6 -26 -4 -44 -1 -58 10 -16 12 -17 15 -4 16 8 0 21 -6 28 -12 10
-11 11 -10 6 5 -4 9 -13 17 -20 17 -7 0 -15 9 -18 19 -3 15 -1 18 12 14 9 -2
3 7 -14 22 -23 21 -25 24 -7 15 12 -6 27 -8 32 -5 6 3 10 1 10 -4 0 -6 5 -11
12 -11 6 0 3 8 -7 20 -10 11 -21 17 -25 15 -4 -3 -21 2 -36 10 -16 8 -35 15
-41 15 -7 0 -13 5 -13 11 0 5 -5 7 -11 4 -10 -7 -79 34 -79 48 0 11 18 9 25
-3 4 -6 16 -8 28 -5 13 4 17 3 11 -2 -9 -6 -8 -11 2 -21 8 -7 14 -10 14 -7 0
3 10 -1 23 -9 12 -8 40 -17 62 -20 22 -4 46 -14 53 -23 6 -9 12 -13 12 -9 0 5
7 3 15 -4 9 -7 18 -10 21 -7 3 3 -8 13 -25 23 -17 10 -31 22 -31 27 0 4 -4 6
-8 3 -10 -6 -9 30 0 40 4 3 4 12 2 19 -3 7 -1 16 5 20 14 8 14 26 0 22 -6 -1
-14 4 -16 11 -3 8 2 10 14 6 13 -4 11 0 -7 15 -14 11 -30 21 -37 21 -6 0 -15
5 -18 10 -7 12 23 9 45 -5 10 -5 8 -1 -4 13 -14 16 -25 20 -47 15 -22 -4 -29
-2 -29 10 0 10 6 14 15 11 8 -4 15 -1 15 5 0 6 -5 11 -11 11 -7 0 -9 11 -6 26
3 20 0 28 -14 31 -11 3 -19 9 -19 14 0 5 14 3 30 -6 17 -9 30 -11 30 -5 0 5 4
10 10 10 5 0 7 -6 4 -14 -3 -9 3 -17 15 -21 12 -3 21 -14 21 -24 0 -25 26 -47
33 -28 3 8 -8 29 -25 47 -16 18 -30 41 -31 51 -1 21 -17 26 -17 7 0 -7 -11 4
-24 24 -12 21 -26 35 -29 31 -4 -3 -7 -1 -7 5 0 5 5 12 11 14 8 3 7 9 -3 19
-15 15 -13 39 3 39 4 0 6 -6 3 -14 -3 -8 -1 -17 5 -21 6 -3 11 2 11 12 0 14 2
15 9 4 5 -7 14 -10 20 -7 6 4 9 11 6 16 -3 5 0 14 7 22 14 14 14 46 2 88 -7
23 -6 24 11 10 16 -13 18 -13 13 0 -3 8 0 29 7 47 11 26 11 32 -1 37 -11 4
-11 11 -4 31 14 36 13 56 -2 54 -27 -3 -48 1 -48 10 0 5 12 24 27 43 15 18 21
27 13 21 -21 -19 -53 12 -40 38 6 10 16 16 24 13 7 -3 19 2 26 11 8 10 9 15 1
15 -23 0 -11 40 15 50 14 6 22 15 19 20 -4 7 2 9 19 4 21 -5 25 -3 20 10 -5
13 0 15 27 11 l34 -5 -30 15 -30 15 43 -3 c32 -1 50 -9 69 -29z m1553 -668 c0
-12 -10 -25 -22 -31 -13 -5 -34 -16 -48 -24 -16 -9 -28 -11 -36 -4 -8 6 -13 3
-17 -12 -4 -15 -11 -20 -22 -15 -9 3 -13 2 -10 -4 7 -11 -38 -32 -72 -34 -12
-1 -25 -5 -30 -10 -4 -5 3 -6 19 -2 17 4 28 1 32 -7 5 -9 7 -9 12 1 8 17 24
15 24 -3 0 -9 7 -18 16 -22 10 -4 12 -8 4 -13 -6 -3 -8 -14 -4 -24 5 -13 13
-16 30 -12 15 4 24 2 24 -5 0 -6 7 -9 15 -5 8 3 18 -2 23 -11 8 -14 10 -14 15
1 10 25 25 19 25 -9 0 -15 -6 -25 -14 -25 -8 0 -14 -7 -14 -15 0 -8 7 -15 15
-15 8 0 15 -5 15 -11 0 -6 -6 -9 -14 -6 -8 3 -17 0 -20 -8 -2 -7 2 -16 10 -19
8 -3 14 0 14 6 0 6 3 8 7 4 5 -4 0 -14 -10 -21 -14 -10 -16 -18 -8 -32 5 -11
6 -25 1 -33 -4 -7 -6 -20 -2 -28 4 -11 1 -14 -11 -9 -9 3 -17 2 -17 -4 0 -5 7
-12 15 -15 21 -9 8 -24 -20 -24 -23 0 -23 1 -8 30 8 17 19 27 25 24 7 -4 8 -2
4 4 -4 6 -14 9 -24 6 -14 -5 -14 -3 2 10 24 20 7 21 -19 2 -16 -12 -17 -16 -6
-30 11 -13 11 -16 -2 -16 -8 0 -17 -6 -20 -14 -3 -8 -15 -14 -26 -13 -11 0
-17 5 -15 9 3 5 9 6 13 3 5 -2 13 7 19 20 15 32 1 39 -26 14 -15 -13 -22 -15
-22 -7 0 16 37 41 49 33 5 -2 14 2 21 10 7 8 21 15 31 15 10 0 21 5 25 11 7
13 -33 3 -52 -12 -14 -12 -41 -2 -68 25 -13 13 -21 16 -24 8 -4 -14 -22 -6
-22 9 0 6 5 7 10 4 13 -8 13 1 0 25 -8 14 -6 21 4 27 11 6 12 13 6 23 -7 10
-10 11 -10 3 0 -7 -9 -13 -21 -13 -11 0 -17 5 -14 10 3 6 0 10 -9 10 -8 0 -17
-6 -20 -12 -3 -7 -3 -2 0 12 4 14 14 34 23 45 16 19 15 19 -9 3 -14 -9 -24
-22 -22 -28 2 -9 -3 -10 -15 -4 -10 4 -30 7 -45 7 -16 0 -28 4 -28 8 0 5 9 9
20 9 18 0 25 10 21 32 0 4 10 7 24 6 14 -1 25 -6 25 -11 0 -5 -7 -7 -15 -3 -9
3 -15 0 -15 -10 0 -13 6 -12 36 7 30 18 38 19 45 8 5 -8 9 -17 9 -21 0 -5 12
-8 26 -8 22 0 25 2 14 15 -10 12 -10 15 0 15 8 0 10 3 6 7 -4 5 -15 -1 -23
-12 -13 -16 -15 -17 -10 -2 4 10 1 17 -6 17 -8 0 -7 4 3 10 8 5 11 12 7 16 -3
4 -13 1 -22 -6 -9 -8 -30 -11 -54 -7 -30 4 -44 0 -60 -14 -11 -10 -25 -19 -31
-19 -9 0 -14 -14 -11 -34 1 -4 -3 -14 -9 -21 -8 -9 -8 -15 0 -20 5 -3 10 1 10
9 0 9 5 16 11 16 6 0 8 -9 4 -20 -7 -22 5 -26 23 -8 6 6 14 9 18 5 3 -3 -9
-15 -27 -26 -44 -25 -73 -55 -60 -59 6 -2 11 -13 11 -25 0 -14 -3 -18 -8 -10
-6 10 -14 9 -35 -2 -15 -8 -31 -15 -35 -15 -4 -1 -6 -8 -4 -16 2 -8 -5 -14
-18 -14 -11 0 -20 7 -20 15 0 8 -6 15 -12 16 -7 0 -3 5 10 11 12 6 22 15 22
20 0 11 -7 10 -31 -2 -19 -11 -27 -40 -10 -40 5 0 9 -11 9 -25 0 -14 -4 -25
-9 -25 -5 0 -9 5 -9 11 0 5 -5 7 -10 4 -6 -4 -8 -11 -5 -16 6 -9 -7 -13 -37
-10 -10 1 -18 -3 -18 -9 0 -6 6 -8 13 -4 9 5 9 4 0 -6 -8 -9 -16 -10 -25 -3
-18 13 -60 15 -52 1 4 -7 0 -6 -14 1 -24 13 -34 35 -21 48 6 6 2 18 -11 34
-11 13 -18 17 -15 8 4 -9 0 -16 -8 -16 -9 0 -12 7 -9 20 4 16 1 18 -19 12 -22
-6 -23 -6 -6 7 18 13 14 54 -3 43 -5 -3 -12 0 -15 6 -5 7 3 10 21 8 56 -4 68
-1 54 16 -7 8 -11 15 -9 16 2 0 11 2 20 4 10 2 21 -7 28 -22 6 -13 15 -22 20
-18 12 7 24 -12 16 -26 -5 -7 -15 -5 -31 6 -26 17 -31 7 -13 -27 9 -17 13 -18
20 -7 6 10 9 8 9 -10 0 -29 12 -20 16 12 1 12 3 24 3 26 1 2 8 -2 16 -9 21
-18 19 -3 -7 39 l-21 36 25 -23 c23 -21 27 -22 41 -8 23 23 31 20 45 -16 l13
-33 15 28 c10 18 23 27 40 27 22 0 23 3 14 20 -9 16 -8 19 6 13 14 -5 16 -2
10 23 -4 16 -3 25 1 19 11 -14 33 -17 33 -5 0 5 -4 10 -10 10 -15 0 -12 19 5
36 8 9 15 13 15 9 0 -3 5 -3 11 1 8 4 7 9 -2 15 -11 6 -8 14 11 34 17 19 26
22 32 13 5 -9 8 -8 8 5 0 9 6 17 14 17 7 0 16 10 19 22 4 12 9 19 13 15 4 -3
18 3 32 14 18 14 28 16 33 8 4 -8 9 -4 14 10 3 11 3 26 -1 32 -4 7 -3 9 4 5 5
-3 13 0 15 6 4 10 8 9 16 -2 6 -8 11 -12 11 -8 0 4 11 3 24 -2 18 -6 26 -5 30
5 3 9 20 14 44 13 22 0 48 5 58 11 25 14 24 14 24 -9z"/>
<path d="M4045 1758 c28 -51 59 -158 80 -283 l16 -90 -24 -20 c-13 -11 -44
-37 -69 -57 -25 -21 -49 -38 -54 -38 -5 0 -74 71 -154 157 -178 193 -173 187
-240 225 -30 18 -70 43 -88 56 -18 14 -35 23 -38 20 -7 -8 58 -84 83 -99 13
-7 25 -20 28 -29 5 -17 73 -74 192 -161 70 -51 205 -178 201 -188 -10 -21
-226 -215 -258 -231 -52 -26 -101 -78 -129 -137 -13 -26 -42 -68 -65 -93 -22
-24 -32 -37 -20 -27 11 9 23 17 26 17 3 0 8 -39 12 -87 3 -49 16 -163 27 -255
14 -113 19 -210 17 -302 -3 -137 4 -176 16 -90 10 74 7 174 -8 322 -42 392
-43 424 -11 456 17 16 45 11 45 -8 0 -7 12 -28 26 -47 14 -19 54 -88 89 -154
61 -116 88 -190 118 -325 11 -47 15 -56 16 -33 5 146 -167 556 -243 577 -15 4
-16 7 -5 19 8 8 18 13 24 11 18 -6 65 44 65 70 0 14 5 28 11 32 8 4 9 -1 4
-17 l-7 -24 21 22 c11 12 21 28 21 36 0 17 44 59 53 50 4 -3 7 5 8 18 0 13 3
18 6 12 3 -8 21 5 46 34 128 142 150 163 163 152 10 -8 21 2 48 44 20 31 44
62 54 69 47 33 175 156 194 186 15 25 23 30 29 20 6 -9 9 -4 9 15 0 25 -9 18
-97 -73 l-97 -101 -24 107 c-37 169 -84 274 -125 282 -14 3 -13 -3 8 -40z"/>
<path d="M6491 1099 c-11 -18 -11 -23 1 -30 7 -5 16 -9 20 -9 4 0 5 -6 2 -14
-3 -8 -1 -17 5 -21 14 -8 14 -25 0 -25 -5 0 -7 5 -4 10 3 6 2 10 -4 10 -16 0
-24 -22 -11 -30 7 -4 10 -15 7 -24 -4 -9 1 -19 11 -25 9 -5 14 -13 9 -17 -4
-4 3 -12 16 -19 12 -6 21 -19 20 -29 -1 -12 2 -15 9 -8 6 6 17 8 24 5 9 -3 14
2 14 12 0 10 -5 15 -13 12 -8 -3 -20 -1 -28 4 -11 7 -8 9 9 9 13 0 22 6 21 13
-1 6 -1 23 0 37 1 19 3 22 10 10 6 -8 7 -18 4 -23 -3 -5 1 -13 8 -18 17 -11
59 -12 43 -1 -16 10 -46 72 -35 72 5 0 17 -7 25 -16 14 -13 16 -13 16 -1 0 9
-4 17 -8 19 -5 2 -15 16 -23 33 -16 34 -49 46 -49 18 -1 -17 -1 -17 -14 0 -8
10 -20 15 -30 11 -10 -4 -16 -1 -16 9 0 8 -6 18 -12 20 -10 4 -9 8 2 16 13 10
13 11 0 11 -8 0 -21 -10 -29 -21z"/>
<path d="M6744 933 c-12 -20 -7 -46 7 -37 5 3 9 -4 9 -16 0 -12 4 -18 10 -15
5 3 7 0 4 -8 -3 -9 -14 -12 -30 -9 -20 3 -23 1 -18 -13 4 -10 9 -12 13 -6 4 6
12 7 21 1 13 -8 12 -10 -2 -11 -10 -1 -22 -2 -28 -3 -15 -2 -37 -38 -48 -77
-5 -19 -14 -33 -20 -32 -6 2 -9 -4 -6 -12 4 -9 0 -15 -9 -15 -9 0 -25 -13 -37
-30 -20 -28 -20 -30 -3 -31 11 0 13 -3 5 -6 -7 -3 -19 0 -26 7 -11 9 -16 6
-21 -11 -12 -38 -27 -47 -46 -30 -10 8 -15 19 -12 25 4 6 0 5 -9 -1 -8 -7 -18
-10 -22 -6 -8 8 -26 -15 -26 -34 0 -7 7 -13 16 -13 8 0 13 4 9 9 -3 5 -1 12 5
16 5 3 10 -3 10 -14 0 -11 4 -22 9 -25 5 -3 11 -17 13 -31 4 -20 3 -23 -8 -14
-7 6 -13 14 -12 17 2 21 -4 31 -17 26 -13 -5 -12 -11 6 -35 21 -30 19 -52 -5
-43 -7 3 -19 -2 -26 -10 -7 -9 -17 -13 -23 -9 -6 4 -8 -2 -4 -18 4 -13 7 -37
7 -52 0 -16 3 -26 8 -24 4 3 5 -16 4 -42 -9 -120 -1 -115 82 54 80 164 189
357 269 479 35 53 43 71 34 81 -7 7 -13 9 -15 4 -2 -5 -10 -9 -18 -9 -9 0 -12
5 -9 10 9 14 -8 13 -23 -2 -7 -7 -12 -8 -12 -2 0 5 5 15 12 22 7 7 8 12 2 12
-5 0 -14 -8 -20 -17z"/>
<path d="M3449 694 c-24 -29 -143 -114 -160 -114 -18 0 -49 -30 -49 -48 0 -6
-25 -25 -55 -42 -79 -45 -152 -105 -170 -140 -21 -40 -19 -57 3 -37 29 27 41
21 33 -16 -11 -45 -30 -79 -42 -72 -5 4 -7 11 -4 16 4 5 2 9 -3 9 -14 0 -25
-29 -27 -71 -1 -19 -5 -41 -9 -47 -10 -17 4 -15 25 4 15 14 17 14 15 -2 0 -9
4 -19 10 -21 13 -4 59 94 73 159 18 81 42 128 71 143 15 8 30 12 32 9 3 -2 -5
-26 -18 -52 -36 -72 -28 -118 12 -77 20 19 54 95 54 121 0 11 7 44 15 72 15
51 17 52 54 52 l39 0 -5 -37 c-3 -20 -14 -51 -24 -70 -10 -18 -15 -33 -9 -33
5 0 12 5 15 10 21 34 17 -13 -16 -190 -20 -109 -40 -204 -44 -210 -3 -5 -2
-10 4 -10 12 0 16 14 36 135 35 213 100 447 151 547 16 31 13 36 -7 12z"/>
<path d="M4676 324 c-10 -14 -37 -68 -61 -120 -24 -51 -48 -94 -54 -94 -8 0
-41 -87 -41 -107 0 -2 56 -3 125 -3 113 0 127 2 142 20 10 11 24 20 31 20 8 0
12 6 9 13 -2 6 -9 11 -15 10 -6 -2 -9 4 -5 13 3 9 9 12 12 7 9 -12 31 -14 31
-3 0 6 -8 13 -17 17 -31 11 -45 25 -32 33 13 9 -1 40 -32 71 -10 10 -19 26
-19 34 0 8 -4 15 -10 15 -5 0 -10 6 -10 14 0 7 -6 19 -14 26 -8 6 -12 18 -9
26 3 8 0 14 -7 14 -6 0 -8 5 -5 10 14 22 -4 8 -19 -16z"/>
</g>
</svg>
